<svg width="90" height="90" viewBox="0 0 90 90" fill="none" xmlns="http://www.w3.org/2000/svg">
<g clip-path="url(#clip0_10_31)">
<path d="M78.1 16V15.84C78.1 11.5965 76.4143 7.52687 73.4137 4.52629C70.4131 1.52571 66.3435 -0.160004 62.1 -0.160004C57.8565 -0.160004 53.7869 1.52571 50.7863 4.52629C47.7857 7.52687 46.1 11.5965 46.1 15.84V40.15C46.1 44.3935 47.7857 48.4631 50.7863 51.4637C53.7869 54.4643 57.8565 56.15 62.1 56.15C66.3435 56.15 70.4131 54.4643 73.4137 51.4637C76.4143 48.4631 78.1 44.3935 78.1 40.15V16Z" fill="#94704E"/>
<path d="M53 33.15H71V54.82H53V33.15Z" fill="#D3A983"/>
<path d="M76.87 22.65C76.8556 22.2631 76.7412 21.8865 76.5379 21.5571C76.3346 21.2276 76.0494 20.9564 75.71 20.77V18.2C75.7077 17.609 75.476 17.0419 75.0637 16.6185C74.6514 16.195 74.0908 15.9481 73.5 15.93L70 14.51L67.41 15.92H50.68C50.3811 15.92 50.0851 15.979 49.809 16.0937C49.533 16.2084 49.2823 16.3765 49.0713 16.5884C48.8604 16.8002 48.6934 17.0517 48.5799 17.3282C48.4664 17.6048 48.4087 17.9011 48.41 18.2V20.77C48.0707 20.9574 47.785 21.2286 47.5802 21.5577C47.3754 21.8867 47.2583 22.2628 47.24 22.65V27.3C47.2425 27.8961 47.4784 28.4675 47.8971 28.8918C48.3158 29.3161 48.884 29.5595 49.48 29.57C50.15 34.99 55.89 43.57 62.06 43.57C68.23 43.57 73.06 35.21 74.64 29.57C75.236 29.5595 75.8042 29.3161 76.2229 28.8918C76.6416 28.4675 76.8775 27.8961 76.88 27.3V22.75C76.88 22.75 76.87 22.69 76.87 22.65Z" fill="#E6C6A1"/>
<path d="M61.62 3.99999C58.5193 3.92799 55.466 4.76958 52.84 6.41999C47.84 9.73999 48.29 16.7 48.29 19.56C48.29 21.2212 48.9492 22.8145 50.1229 23.99C51.2966 25.1656 52.8888 25.8273 54.55 25.83C54.0168 25.7932 53.5174 25.5555 53.1527 25.1647C52.788 24.774 52.5852 24.2595 52.5852 23.725C52.5852 23.1905 52.788 22.676 53.1527 22.2852C53.5174 21.8945 54.0168 21.6568 54.55 21.62H61.62C63.4856 21.6158 65.3018 21.0202 66.8076 19.9187C68.3133 18.8173 69.431 17.2667 70 15.49C70.46 15.76 74.62 16.25 74.62 29.57C74.62 32.46 77.51 31.95 77.51 21.04C77.51 17.86 74.91 11.59 74.91 11.59C74.91 11.59 71.49 3.99999 61.62 3.99999Z" fill="#94704E"/>
<path d="M84.13 71C90.99 71 89.94 63.49 89.94 60.56C89.9409 58.7918 89.4295 57.0612 88.4676 55.5776C87.5057 54.094 86.1346 52.9208 84.52 52.2L71.07 44.8H70.98C70.7453 47.0234 69.6959 49.0812 68.0341 50.5768C66.3723 52.0724 64.2157 52.9 61.98 52.9C59.7443 52.9 57.5877 52.0724 55.9259 50.5768C54.2641 49.0812 53.2147 47.0234 52.98 44.8H52.88L39.44 52.2C37.8243 52.9203 36.4518 54.0931 35.4882 55.5766C34.5246 57.0602 34.0112 58.791 34.01 60.56C34.01 63.49 33.01 71 39.83 71H84.13Z" fill="#666564"/>
<path d="M51.55 67.69L42.37 61.85C43.4124 60.0755 44.181 58.1538 44.65 56.15C44.79 55.6 47.65 55.33 47.65 51.57C47.65 50.97 47.78 49.38 47.87 47.57L39.5 52.18C37.8843 52.9003 36.5118 54.0731 35.5482 55.5566C34.5846 57.0402 34.0712 58.771 34.07 60.54C34.07 63.47 33.07 70.98 39.89 70.98H56.29C54.9613 69.5595 53.3455 68.438 51.55 67.69Z" fill="#4B4847"/>
<path d="M18.95 58.68H37.07V77.82H18.95V58.68Z" fill="#94704E"/>
<path d="M50.13 90C57 90 56 82.48 56 79.56C55.9988 77.791 55.4854 76.0602 54.5218 74.5766C53.5583 73.0931 52.1857 71.9203 50.57 71.2L37.08 63.8H36.98C36.8109 66.0646 35.7919 68.1815 34.1274 69.7263C32.4629 71.2712 30.2759 72.1296 28.005 72.1296C25.7341 72.1296 23.5471 71.2712 21.8826 69.7263C20.2181 68.1815 19.1992 66.0646 19.03 63.8H18.93L5.48001 71.2C3.86543 71.9208 2.49427 73.094 1.53238 74.5776C0.570498 76.0612 0.0590899 77.7918 0.0600146 79.56C0.0600146 82.48 -0.999985 90 5.87001 90H50.13Z" fill="#7EADCA"/>
<path d="M14.36 50C14.88 59.83 20.78 67.6 28 67.6C35.22 67.6 41.13 59.82 41.65 50L41.13 43.16C39.44 35.31 34.21 29.59 28 29.59C21.79 29.59 16.57 35.31 14.89 43.15L14.36 50Z" fill="#A78765"/>
<path d="M44 34C44 26.43 36.82 20.31 28 20.31C19.18 20.31 12.07 26.45 12 34V45.49H16.57V36.3H28L30 30.68L33.87 31.82C34.2459 32.5786 34.8259 33.2173 35.5449 33.6643C36.2639 34.1112 37.0934 34.3487 37.94 34.35V38.73H39.45V45.49H44V34Z" fill="#4F483C"/>
<path d="M37.91 27.64C37.0759 27.6461 36.2595 27.8813 35.55 28.32C34.9887 26.4884 33.785 24.9212 32.1602 23.9064C30.5354 22.8917 28.5988 22.4977 26.7067 22.7971C24.8146 23.0964 23.0942 24.0689 21.862 25.5356C20.6298 27.0023 19.9686 28.8646 20 30.78C20.0006 31.2601 20.0475 31.7389 20.14 32.21H14.31V38.73H28C29.2899 38.7302 30.5605 38.4162 31.7017 37.8151C32.843 37.214 33.8206 36.3438 34.55 35.28C35.0623 35.8393 35.706 36.262 36.4229 36.5098C37.1397 36.7576 37.9071 36.8226 38.6554 36.6991C39.4037 36.5756 40.1094 36.2673 40.7086 35.8023C41.3078 35.3372 41.7815 34.73 42.0868 34.0358C42.3921 33.3415 42.5195 32.582 42.4573 31.8261C42.3951 31.0702 42.1453 30.3417 41.7306 29.7067C41.3159 29.0716 40.7493 28.5501 40.0822 28.1892C39.4151 27.8283 38.6685 27.6396 37.91 27.64Z" fill="#4F483C"/>
<path d="M41.7 43.3V39.06C41.6974 38.4561 41.4563 37.8777 41.0293 37.4507C40.6023 37.0237 40.0239 36.7826 39.42 36.78H37.14L33.44 38.94L16.59 38.73C15.9878 38.7326 15.4109 38.9723 14.9842 39.3971C14.5575 39.822 14.3153 40.3979 14.31 41V43.3C14.0084 43.2974 13.7093 43.3543 13.4298 43.4676C13.1503 43.5809 12.896 43.7482 12.6813 43.9601C12.4667 44.1719 12.296 44.4241 12.1791 44.7021C12.0622 44.9801 12.0013 45.2784 12 45.58V50.15C12.0053 50.7539 12.2489 51.3312 12.6778 51.7564C13.1066 52.1815 13.6861 52.42 14.29 52.42H41.7C42.0003 52.4226 42.2981 52.3659 42.5764 52.2532C42.8546 52.1404 43.1079 51.9738 43.3216 51.7628C43.5353 51.5519 43.7053 51.3009 43.8217 51.0241C43.9381 50.7473 43.9987 50.4503 44 50.15V45.58C44 45.2789 43.9404 44.9808 43.8246 44.7028C43.7087 44.4249 43.539 44.1727 43.3251 43.9607C43.1113 43.7487 42.8576 43.5812 42.5787 43.4678C42.2997 43.3544 42.0011 43.2974 41.7 43.3Z" fill="#A78765"/>
<path d="M52.27 20.81C48.91 23.42 47.27 23.44 47.27 27.3C47.27 31.16 46.37 23.42 46.37 23.42L47.84 18L52.27 20.81Z" fill="#94704E"/>
</g>
<defs>
<clipPath id="clip0_10_31">
<rect width="90" height="90" fill="white"/>
</clipPath>
</defs>
</svg>
