<svg width="90" height="90" viewBox="0 0 90 90" fill="none" xmlns="http://www.w3.org/2000/svg">
<g clip-path="url(#clip0_46_47)">
<path d="M36.7 28.55L51.49 0H67.14C68.9965 0 70.777 0.737498 72.0898 2.05025C73.4025 3.36301 74.14 5.14348 74.14 7V9.74C74.0478 11.6581 73.5066 13.5278 72.56 15.1987C71.6134 16.8695 70.2879 18.2948 68.69 19.36L53.24 30.21C51.75 31.11 47.05 31.65 45 31.65C43.0801 31.6839 41.1857 31.2077 39.51 30.27L36.7 28.55Z" fill="#537133"/>
<path d="M53.3 20.25H36.7C34.4995 20.2526 32.3899 21.128 30.8339 22.6839C29.278 24.2399 28.4026 26.3495 28.4 28.55V34.08C28.4026 36.2805 29.278 38.3901 30.8339 39.9461C32.3899 41.502 34.4995 42.3774 36.7 42.38H53.3C55.5005 42.3774 57.6101 41.502 59.1661 39.9461C60.722 38.3901 61.5973 36.2805 61.6 34.08V28.55C61.5973 26.3495 60.722 24.2399 59.1661 22.6839C57.6101 21.128 55.5005 20.2526 53.3 20.25ZM53.3 31.32V32.43H36.71V28.55H53.3V31.32Z" fill="#F1AB22"/>
<path d="M53.3 28.55L38.51 0H22.86C21.0035 0 19.223 0.737498 17.9103 2.05025C16.5975 3.36301 15.86 5.14348 15.86 7V9.74C15.9523 11.6581 16.4935 13.5278 17.44 15.1987C18.3866 16.8695 19.7122 18.2948 21.31 19.36L36.76 30.21C38.25 31.11 42.95 31.65 45 31.65C46.9199 31.6839 48.8144 31.2077 50.49 30.27L53.3 28.55Z" fill="#7EA34E"/>
<path d="M45 32.57C50.3401 32.57 55.5603 34.1535 60.0004 37.1203C64.4405 40.0871 67.9012 44.3039 69.9448 49.2375C71.9883 54.1712 72.523 59.6 71.4812 64.8374C70.4394 70.0749 67.8679 74.8859 64.0919 78.6619C60.3159 82.4379 55.5049 85.0094 50.2674 86.0512C45.03 87.093 39.6012 86.5583 34.6676 84.5147C29.734 82.4712 25.5171 79.0105 22.5503 74.5704C19.5835 70.1303 18 64.9101 18 59.57C18 52.4092 20.8446 45.5416 25.9081 40.4781C30.9716 35.4146 37.8392 32.57 45 32.57ZM45 29.11C38.9795 29.11 33.0943 30.8953 28.0885 34.2401C23.0826 37.5849 19.181 42.3389 16.8771 47.9011C14.5732 53.4633 13.9704 59.5838 15.1449 65.4885C16.3194 71.3933 19.2186 76.8172 23.4757 81.0743C27.7328 85.3314 33.1567 88.2306 39.0615 89.4051C44.9662 90.5796 51.0867 89.9768 56.6489 87.6729C62.2111 85.369 66.9652 81.4674 70.3099 76.4616C73.6547 71.4557 75.44 65.5705 75.44 59.55C75.44 55.5526 74.6527 51.5943 73.1229 47.9011C71.5932 44.208 69.351 40.8523 66.5243 38.0257C63.6977 35.1991 60.342 32.9569 56.6489 31.4271C52.9557 29.8974 48.9974 29.11 45 29.11Z" fill="#F1C335"/>
<path d="M64.5637 79.1141C75.3695 68.3082 75.3695 50.7886 64.5637 39.9828C53.7579 29.177 36.2382 29.177 25.4324 39.9828C14.6266 50.7886 14.6266 68.3082 25.4324 79.114C36.2382 89.9199 53.7579 89.9199 64.5637 79.1141Z" fill="#FCD157"/>
<path d="M57.06 36C57.06 35.54 57 35.1 56.99 34.65C53.252 32.828 49.1484 31.8808 44.99 31.88C38.8854 31.8756 32.9508 33.8916 28.1121 37.6136C23.2733 41.3356 19.8023 46.5544 18.2405 52.4558C16.6786 58.3573 17.1137 64.6098 19.4779 70.2381C21.842 75.8664 26.0024 80.5541 31.31 83.57C39.2137 78.4016 45.7062 71.3467 50.2017 63.0419C54.6972 54.737 57.0542 45.4435 57.06 36Z" fill="#FBE28B"/>
</g>
<defs>
<clipPath id="clip0_46_47">
<rect width="90" height="90" fill="white"/>
</clipPath>
</defs>
</svg>
