<svg width="70" height="60" viewBox="0 0 70 60" fill="none" xmlns="http://www.w3.org/2000/svg">
<g clip-path="url(#clip0_47_249)">
<path d="M47.2452 23.6086V35.2552L49.1274 35.1819V56.7619H68.813C69.0001 56.7637 69.1858 56.7333 69.359 56.6726C69.5322 56.6118 69.6894 56.5219 69.8214 56.4082C69.9534 56.2945 70.0574 56.1592 70.1273 56.0104C70.1973 55.8616 70.2317 55.7023 70.2285 55.5419V41.7352H50.9008V23.6086H47.2452Z" fill="#AC5F27"/>
<path d="M50.9008 43.6086V39.7886H68.7896C68.981 39.7736 69.1738 39.7945 69.3547 39.8499C69.5357 39.9053 69.7003 39.9938 69.8373 40.1093C69.9742 40.2248 70.0802 40.3645 70.1478 40.5186C70.2153 40.6728 70.2429 40.8377 70.2285 41.0019V43.6086H50.9008Z" fill="#D79D66"/>
<path d="M50.9008 23.6086H27.3341V56.7552H50.9008V23.6086Z" fill="#F7C045"/>
<path d="M27.3341 56.7619V24.2152H50.9008C33.8441 36.5086 27.3341 56.7619 27.3341 56.7619Z" fill="#FCD157"/>
<path d="M27.3341 24.2152V21.6019C27.3275 21.4414 27.3597 21.2814 27.4286 21.132C27.4975 20.9826 27.6017 20.847 27.7346 20.7337C27.8675 20.6204 28.0262 20.5319 28.2009 20.4736C28.3756 20.4154 28.5624 20.3887 28.7496 20.3952H49.493C51.1652 20.3952 50.9008 21.6019 50.9008 21.6019V24.2152H27.3341Z" fill="#FBE28B"/>
<path d="M27.3341 56.7619H10.0052C7.88187 56.7619 8.00631 54.8152 8.00631 54.8152V35.7352H27.3341V56.7619Z" fill="#8B8987"/>
<path d="M8.00631 54.8152V36.3352H27.3341C17.9385 43.1086 14.0108 48.6419 11.1174 56.7619H10.0052C7.81964 56.7619 8.00631 54.8152 8.00631 54.8152Z" fill="#BEBDB9"/>
<path d="M8.00631 36.3352V33.9686C7.98682 33.7837 8.01259 33.5973 8.08199 33.4214C8.15138 33.2455 8.26287 33.084 8.40931 32.9472C8.55575 32.8104 8.73391 32.7013 8.93238 32.6269C9.13085 32.5525 9.34526 32.5145 9.56187 32.5152H27.3341V36.3352H8.00631Z" fill="#DAD8D6"/>
<path d="M11.7241 27.6686C11.734 26.9235 11.9308 26.189 12.3012 25.5149C12.6716 24.8408 13.2069 24.243 13.8708 23.7619C14.9959 22.998 16.1896 22.3114 17.4408 21.7086C18.483 21.1219 19.2219 20.5486 19.2219 19.7552C19.235 19.5556 19.198 19.356 19.1131 19.1697C19.0283 18.9835 18.8977 18.8151 18.7302 18.676C18.5627 18.5369 18.3623 18.4303 18.1425 18.3634C17.9227 18.2966 17.6886 18.271 17.4563 18.2886C15.6908 18.2886 15.2008 19.3886 15.1774 20.6619H12.0663C11.8719 17.7552 14.0341 15.7819 17.4485 15.7819C20.1552 15.7819 22.5663 16.9952 22.5663 19.5019C22.5663 21.7619 20.6841 22.6019 18.6774 23.6619C17.775 24.0924 16.9433 24.6237 16.2041 25.2419H22.6985V27.6686H11.7241Z" fill="#BEBDB9"/>
<path d="M59.7752 27.6219C60.0708 27.6219 60.3663 27.6219 60.6541 27.6219C61.6419 27.6219 62.8785 27.4019 62.8785 26.3952C62.8785 25.6352 61.9919 25.2152 60.9108 25.2152C59.5574 25.2152 58.7719 25.8219 58.7952 26.8819H55.6841C55.7619 24.2552 58.0174 22.8819 60.9108 22.8819C63.2441 22.8819 66.013 23.7419 66.013 26.1286C66.0626 26.6414 65.8983 27.1527 65.5494 27.5714C65.2004 27.9901 64.6895 28.2891 64.1074 28.4152C64.8061 28.5439 65.427 28.8846 65.8558 29.3746C66.2846 29.8646 66.4923 30.471 66.4408 31.0819C66.4408 33.7486 63.6096 34.8486 60.903 34.8486C57.6985 34.8486 55.1085 33.4552 55.3108 30.4419H58.4219C58.4219 31.8419 59.1996 32.5286 60.8719 32.5286C62.0152 32.5286 63.0963 32.1086 63.0963 31.0819C63.0963 29.7886 61.9919 29.4819 60.6541 29.4819C60.3663 29.4819 60.0708 29.4819 59.7752 29.4819V27.6219Z" fill="#C37F3A"/>
<path d="M40.8908 12.4419V3.42857H38.1296C37.9896 5.27524 36.0063 5.87524 34.0774 5.84857V7.94857H37.3596V12.4419H34.163V15.4686H44.0096V12.4419H40.8908Z" fill="#FCD157"/>
<path d="M50.9008 56.7619V43.6086H70.2285C63.6796 48.3286 59.0985 50.4686 55.9408 56.7619H50.9008Z" fill="#C37F3A"/>
</g>
<defs>
<clipPath id="clip0_47_249">
<rect width="70" height="60" fill="white"/>
</clipPath>
</defs>
</svg>
